# xmcd
#
# Track frame offsets:
#	150
#	11695
#	36747
#	51142
#	71095
#	86730
#	99412
#	124104
#	140737
#	167862
#	194602
#	212457
#	232462
#	257430
#	276422
#	290592
#	306337
#	326750
#
# Disc length: 4613 seconds
#
# Revision: 1
# Processed by: cddbd v1.4b42PL1 Copyright (c) Steve Scherf et al.
# Submitted via: audiograbber 1.80.04
#
DISCID=25120312
DTITLE=Mississippi Fred McDowell - This Ain´t No Rock N´ Roll
DYEAR=1969
DGENRE=
TTITLE0=My Baby
TTITLE1=Leevee Camp Blues
TTITLE2=When The Saints Go Marching In
TTITLE3=Diamond Ring
TTITLE4=Dankin´s Farm
TTITLE5=You Ain´t Treatin´ Me Right
TTITLE6=Ethel Mae Blues
TTITLE7=Meet Me In The Froggy Bottom
TTITLE8=Mama Said I´m Crazy
TTITLE9=I Heard Somebody Calling Me
TTITLE10=Keep Your Lamp Trimmed And Burning
TTITLE11=I Wonder What Have I Done Wrong
TTITLE12=I Worked Old Lu And I Worked Old Bess
TTITLE13=Jim, Steam Killed Lula
TTITLE14=Worried Now, Won´t Be Worried Long
TTITLE15=Going Away, Won´t Be Gone Long
TTITLE16=Going Down That Gravel Bottom
TTITLE17=Bye, Bye Little Girl
EXTD=Copyright 1969 and 1995 by Arhoolie Productions Inc
EXTT0=
EXTT1=
EXTT2=
EXTT3=
EXTT4=
EXTT5=
EXTT6=
EXTT7=
EXTT8=
EXTT9=
EXTT10=
EXTT11=
EXTT12=
EXTT13=
EXTT14=
EXTT15=
EXTT16=
EXTT17=
PLAYORDER=
